<svg xmlns="http://www.w3.org/2000/svg" width="20" height="20" viewBox="0 0 20 20">
  <!-- Бінокль -->
  <circle cx="7" cy="10" r="3" fill="#374151"></circle>
  <circle cx="13" cy="10" r="3" fill="#374151"></circle>
  <rect x="7" y="8.5" width="6" height="3" fill="#374151"></rect>

  <!-- Лінзи -->
  <circle cx="7" cy="10" r="1.2" fill="#9ca3af"></circle>
  <circle cx="13" cy="10" r="1.2" fill="#9ca3af"></circle>

  <!-- 4 зірки (зверху) -->
  <polygon points="5,4 5.5,5.5 7,5.5 5.8,6.5 6.3,8 5,7 3.7,8 4.2,6.5 3,5.5 4.5,5.5" fill="#fbbf24"></polygon>
  <polygon points="8,3 8.5,4.5 10,4.5 8.8,5.5 9.3,7 8,6 6.7,7 7.2,5.5 6,4.5 7.5,4.5" fill="#fbbf24"></polygon>
  <polygon points="11,3 11.5,4.5 13,4.5 11.8,5.5 12.3,7 11,6 9.7,7 10.2,5.5 9,4.5 10.5,4.5" fill="#fbbf24"></polygon>
  <polygon points="14,4 14.5,5.5 16,5.5 14.8,6.5 15.3,8 14,7 12.7,8 13.2,6.5 12,5.5 13.5,5.5" fill="#fbbf24"></polygon>
</svg>