<svg xmlns="http://www.w3.org/2000/svg" width="24" height="24" viewBox="0 0 24 24" role="img" aria-label="Phone call icon">
  <circle cx="12" cy="12" r="12" fill="#4CAF50"/>
  <g fill="none" stroke="#F2F2F2" stroke-linecap="round" stroke-linejoin="round">
    <path d="M14.4 5.2
             A6.8 6.8 0 0 1 19.2 10" stroke-width="0.9"/>
    <path d="M14.0 7.6
             A4.4 4.4 0 0 1 17.0 10.8" stroke-width="0.9"/>
    <path d="M12.3 10.0
             A2.0 2.0 0 0 1 13.1 11.6" stroke-width="0.9"/>
  </g>
  <path fill="#F2F2F2" d="M7.45 5.95
           c-.34.12-.66.36-.95.72l-1 1.24
           c-.45.55-.58 1.3-.35 1.97
           c1.18 3.36 3.84 6.03 7.2 7.2
           c.67.23 1.42.1 1.97-.35l1.24-1
           c.36-.29.6-.61.72-.95
           c.11-.31.03-.64-.21-.88l-2.04-2.04
           c-.33-.33-.86-.35-1.22-.06l-.96.79
           c-.22.18-.51.24-.79.16
           a5.72 5.72 0 0 1-3.54-3.54
           c-.08-.28-.02-.57.16-.79l.79-.96
           c.29-.36.27-.89-.06-1.22L8.33 6.16
           c-.24-.24-.57-.32-.88-.21z"/>
</svg>
